<?xml version="1.0" standalone="no"?>
<!DOCTYPE svg PUBLIC "-//W3C//DTD SVG 20010904//EN"
 "http://www.w3.org/TR/2001/REC-SVG-20010904/DTD/svg10.dtd">
<svg version="1.0" xmlns="http://www.w3.org/2000/svg"
 width="765.000000pt" height="765.000000pt" viewBox="0 0 765.000000 765.000000"
 preserveAspectRatio="xMidYMid meet">
<metadata>
Created by potrace 1.11, written by Peter Selinger 2001-2013
</metadata>
<g transform="translate(0.000000,765.000000) scale(0.100000,-0.100000)"
fill="#000000" stroke="none">
<path d="M1489 6343 c-178 -302 -402 -681 -497 -843 -96 -162 -232 -392 -302
-510 -70 -118 -223 -377 -340 -575 -117 -198 -242 -408 -276 -466 -35 -59 -64
-112 -64 -118 0 -7 29 -60 64 -119 35 -59 155 -262 266 -452 112 -190 255
-433 318 -540 64 -107 160 -271 215 -365 55 -93 157 -267 227 -385 70 -118
173 -293 229 -389 56 -96 112 -188 124 -205 12 -17 22 -33 21 -36 0 -3 10 -23
23 -45 25 -42 184 -312 267 -453 l49 -82 1774 2 1774 3 29 50 c15 28 86 149
157 270 71 121 210 357 308 525 98 168 199 341 226 385 58 98 555 948 579 990
10 17 121 206 248 422 126 215 233 401 237 412 5 15 -36 91 -159 301 -91 153
-166 282 -166 285 0 4 -11 21 -25 39 -14 18 -25 36 -25 39 0 4 -26 50 -59 104
-32 54 -96 163 -143 243 -47 80 -161 273 -253 430 -92 157 -182 310 -200 340
-17 30 -46 80 -64 110 -18 30 -36 62 -41 70 -9 15 -133 227 -176 299 -12 20
-44 74 -71 121 -28 47 -130 221 -227 388 l-178 302 -1773 0 -1772 0 -324 -547z
m3777 309 c11 -20 118 -203 238 -407 120 -203 226 -383 236 -400 9 -16 56 -96
103 -176 47 -81 94 -160 104 -177 10 -17 52 -88 93 -159 41 -70 86 -146 100
-170 221 -379 366 -623 381 -645 10 -15 19 -29 19 -32 0 -3 33 -60 73 -128
138 -231 287 -487 298 -511 10 -21 1 -40 -69 -158 -44 -74 -89 -150 -100 -169
-11 -19 -57 -98 -102 -175 -45 -77 -92 -158 -105 -180 -12 -22 -52 -89 -87
-150 -192 -325 -1007 -1716 -1097 -1872 l-106 -183 -1660 1 -1660 0 -71 122
c-39 67 -145 248 -236 402 -290 492 -471 799 -487 827 -22 36 -46 78 -203 343
-74 127 -211 358 -303 515 -332 564 -385 654 -385 661 0 5 83 151 120 209 5 8
30 51 56 95 26 44 126 213 222 375 259 438 288 487 414 700 63 107 174 294
245 415 72 121 139 234 149 252 11 17 44 74 74 125 30 51 58 99 63 108 4 8 38
65 75 127 37 61 112 188 167 282 l100 170 1660 1 1660 0 21 -38z"/>
<path d="M4314 5195 c-7 -18 -81 -205 -163 -416 -313 -805 -731 -1879 -779
-2001 l-50 -128 277 0 276 0 106 293 105 292 513 0 514 0 13 -30 c7 -16 38
-93 68 -170 29 -77 75 -195 102 -262 l48 -123 282 0 282 0 -335 838 c-336 840
-445 1111 -468 1167 -7 17 -62 152 -121 301 l-107 271 -275 0 -274 0 -14 -32z
m406 -906 c67 -178 129 -346 139 -374 10 -27 35 -94 54 -147 l36 -98 -351 0
c-276 0 -349 3 -346 13 170 470 342 937 344 934 2 -2 58 -149 124 -328z"/>
<path d="M1738 5192 c-54 -1 -98 -5 -98 -8 0 -8 -45 -252 -154 -824 -2 -14
-18 -99 -36 -190 -42 -224 -59 -315 -56 -317 2 -3 251 -40 325 -49 25 -3 49
-7 53 -10 5 -3 34 18 66 46 116 104 223 145 356 138 101 -5 174 -36 237 -102
87 -89 122 -197 121 -376 0 -241 -70 -389 -219 -462 -59 -29 -77 -33 -148 -33
-66 0 -90 5 -137 27 -102 48 -193 162 -213 269 -12 64 -5 62 -186 44 -90 -9
-196 -20 -236 -24 -40 -4 -74 -9 -77 -12 -3 -3 1 -36 9 -74 51 -241 197 -432
410 -535 155 -74 282 -98 475 -89 339 16 583 176 739 486 93 186 119 447 65
668 -88 360 -388 605 -739 605 -55 1 -109 -1 -120 -3 -11 -3 -38 -8 -60 -11
-22 -4 -68 -19 -103 -33 -35 -14 -65 -23 -67 -21 -2 2 13 98 34 213 l38 210
466 3 467 2 0 230 0 230 -232 0 c-128 0 -379 1 -558 3 -179 1 -369 1 -422 -1z"/>
</g>
</svg>
